<svg width="161" height="27" viewBox="0 0 161 27" fill="none" xmlns="http://www.w3.org/2000/svg">
<path d="M37.5093 20.0208C37.5093 16.4882 40.1689 13.6621 43.6685 13.6621C43.8085 13.6621 43.9485 13.6621 43.9485 13.6621C47.448 13.5208 50.3877 16.2055 50.5276 19.7382C50.6676 23.2708 48.008 26.2382 44.5084 26.3795C44.3684 26.3795 44.0885 26.3795 43.9485 26.3795C40.4489 26.5208 37.6493 23.836 37.5093 20.4447C37.5093 20.3034 37.5093 20.1621 37.5093 20.0208ZM47.868 20.0208C47.868 17.7599 46.1882 16.0642 43.9485 16.0642C41.7088 16.0642 40.029 17.7599 40.029 20.0208C40.029 22.2816 41.7088 23.9773 43.9485 23.9773C46.0482 24.1186 47.868 22.4229 47.868 20.3034C48.008 20.1621 48.008 20.1621 47.868 20.0208Z" fill="#2B8CFC"/>
<path d="M79.7841 25.673L74.1848 17.6186C73.4849 17.6186 72.9249 17.7599 72.225 17.7599H65.5059V25.673H62.8462L62.8462 0.662109L72.085 0.662109C78.3842 0.662109 82.1638 3.91211 82.1638 9.28168C82.3037 12.9556 79.924 16.2056 76.5645 17.1947L82.5837 25.8143H79.7841V25.673ZM79.6441 9.14037C79.6441 5.18385 76.9844 2.92298 72.085 2.92298L65.5059 2.92298V15.4991L72.085 15.4991C76.9844 15.3578 79.6441 13.0969 79.6441 9.14037Z" fill="white"/>
<path d="M99.9414 2.92298L91.2625 2.92298V0.662109L111.28 0.662109V2.92298L102.601 2.92298V25.673L99.9414 25.673V2.92298Z" fill="white"/>
<path d="M121.639 0.662109L124.298 0.662109V25.673H121.639V0.662109Z" fill="white"/>
<path d="M42.6887 0.662109L45.2084 0.662109V14.3686H42.6887V0.662109Z" fill="#2B8CFC"/>
<path d="M160.694 0.662109V25.673H158.594L142.496 5.32515V25.673H139.837V0.662109L141.936 0.662109L157.894 21.0099V0.662109L160.694 0.662109Z" fill="white"/>
<path d="M23.2311 17.4771C21.5513 21.2924 17.7718 23.5532 13.7123 23.4119C8.11299 23.5532 3.49357 19.1728 3.35358 13.5206C3.35358 13.3793 3.35358 13.0967 3.35358 12.9554C3.2136 7.30323 7.69304 2.64018 13.2923 2.64018C13.4323 2.64018 13.7123 2.64018 13.8523 2.64018C17.9118 2.49888 21.6913 4.90105 23.3711 8.57497L25.7508 7.44453C23.3711 3.0641 18.7517 0.238011 13.7123 0.379315C6.85315 0.0967064 0.973882 5.46627 0.693917 12.3902C0.693917 12.6728 0.693917 12.8141 0.693917 13.0967C0.553934 20.0206 6.01325 25.8141 13.0124 25.9554C13.2923 25.9554 13.5723 25.9554 13.7123 25.9554C18.7517 26.0967 23.3711 23.2706 25.6108 18.7489L23.2311 17.4771Z" fill="white"/>
</svg>
